<svg xmlns="http://www.w3.org/2000/svg" viewBox="0 0 400 400"><title>tlucs-plus4_logo-400x400</title><rect width="400" height="400" rx="40" ry="40" style="fill:#363636"/><path d="M199.17,96h-6.72V115.7h7.17V105.55c0-3,1.79-4,5.52-4s4.78,1.19,4.78,5.07v9.11h7.31V105.25c0-2.84,2.09-3.73,5.52-3.73,3.28,0,4.93,1,4.93,3.73V115.7h7.17V104.06c0-5.82-3.58-8.51-10.15-8.51-5.67,0-7.61,1.94-8.51,4.33-1.49-2.54-3.58-4.33-9.26-4.33-5.37,0-6.72,1.79-7.76,5.08V96Z" style="fill:#fff;fill-rule:evenodd"/><path d="M150.94,96h-6.72V115.7h7.17V105.55c0-3,1.49-4,5.52-4,3.73,0,4.78,1.34,4.78,5.07v9.11H169V105.25c0-2.84,2.24-3.73,5.67-3.73s4.78.9,4.78,3.73V115.7h7.17V104.06c0-5.82-3.58-8.51-10.15-8.51-5.67,0-7.76,2.09-8.51,4.33-1.49-2.54-3.58-4.33-9.26-4.33-5.37,0-6.87,1.79-7.76,5.08V96Z" style="fill:#fff;fill-rule:evenodd"/><path d="M48.25,93.12v-14a26.78,26.78,0,0,0-7.61-1c-14.93,0-27.92,12.39-27.92,27.77a27.87,27.87,0,0,0,28.07,27.77,24.13,24.13,0,0,0,7.46-1.19V118.05c-3.28,1.64-4.93,2.09-7.61,2.09A14.75,14.75,0,0,1,26,105.51,14.5,14.5,0,0,1,48.25,93.12Z" style="fill:#fff;fill-rule:evenodd"/><path d="M292.18,87.61v11.5c-1.64-2.24-3.14-3.43-9.11-3.43-9.55,0-11.35,2.54-11.35,10.3s2.54,10.15,11.79,10.15c5.82,0,7.61-1.49,9-4v3.58h7.17V87.61Zm-5.23,13.73c4,0,5.37.6,5.37,3.73,0,4.78-.3,5.22-6,5.22s-7.17-.15-7.17-4.18c0-4.63,1.79-4.78,7.76-4.78Z" style="fill:#fff;fill-rule:evenodd"/><path d="M139.59,105.54c0-8.06-2.24-9.7-13.73-9.7-12.39,0-13.88,1.94-13.88,10.3,0,8.51,2.09,10.3,13.88,10.3,12.54,0,13.73-2.09,13.73-10.9Zm-20.27.45c0-4,.9-4.48,6.12-4.48,5.82,0,6.87.15,6.87,4.48,0,4-.75,4.78-6.27,4.78-6,0-6.72-.6-6.72-4.78Z" style="fill:#fff;fill-rule:evenodd"/><path d="M331.75,105.54c0-8.06-2.24-9.7-13.73-9.7-12.39,0-13.88,1.94-13.88,10.3,0,8.51,2.09,10.3,13.88,10.3,12.54,0,13.73-2.09,13.73-10.9Zm-20.31.45c0-4,.9-4.48,6.12-4.48,5.82,0,6.87.15,6.87,4.48,0,4-.75,4.78-6.27,4.78-6,0-6.72-.6-6.72-4.78Z" style="fill:#fff;fill-rule:evenodd"/><path d="M267.24,105.54c0-8.06-2.39-9.7-13.88-9.7-12.39,0-13.88,2.09-13.88,10.45s2.09,10.15,13.88,10.15c12.54,0,13.88-2.09,13.88-10.9Zm-20.44.47c0-4,.9-4.48,6.12-4.48,5.82,0,6.87.15,6.87,4.48,0,4-.75,4.78-6.27,4.78-6,0-6.72-.6-6.72-4.78Z" style="fill:#fff;fill-rule:evenodd"/><path d="M100.49,104.35h7.17c-.6-6.72-2.54-8.36-12.54-8.36-11.35,0-13.88,1.79-13.88,10.15s2.39,10.3,13,10.3c11.2,0,13.44-1.49,13.44-8.51h-7.17c0,1.94-.75,2.84-6.27,2.84-4.78,0-5.82-1.19-5.82-5.07s1-3.73,6.72-3.73c4.18,0,4.93.45,5.38,2.39Z" style="fill:#fff;fill-rule:evenodd"/><path d="M375.94,111.81c-6.87,0-7.91-.6-7.91-4h18.81c-.3-9.55-.3-11.79-13-11.79-10.75,0-13.14,1.94-13.14,10.45,0,7.91,3.14,9.85,11.79,10,9.7,0,14.33-.45,14.33-6.87h-7c-.3,1.49-.9,2.24-3.88,2.24Zm-8.08-8.2c.3-2.09.9-2.84,5.67-2.84,5.22,0,6,.3,6.27,2.84Z" style="fill:#fff;fill-rule:evenodd"/><polygon points="72.86 93.88 48.98 93.88 48.98 104.78 62.12 104.78 72.86 93.88 72.86 93.88" style="fill:#fff;fill-rule:evenodd"/><polygon points="62.27 107.02 48.98 107.02 48.98 117.92 72.86 117.92 62.27 107.02 62.27 107.02" style="fill:#fff;fill-rule:evenodd"/><path d="M342.94,96h-6.87V115.7h7.17V105.4c0-2.69,1.64-4,4.63-4s3.73.9,3.88,3.43h6.72c0-6.72-.9-9.26-8.06-9.26-4.33,0-5.82.9-7.47,4.18V96Z" style="fill:#fff;fill-rule:evenodd"/><rect x="377.72" y="238.59" width="9.71" height="80.57" style="fill:#ce2722"/><rect x="361.12" y="238.59" width="9.71" height="80.57" style="fill:#ce2722"/><rect x="344.52" y="238.59" width="9.71" height="80.57" style="fill:#ce2722"/><rect x="327.93" y="238.59" width="9.71" height="80.57" style="fill:#eb6f43"/><rect x="311.33" y="238.59" width="9.71" height="80.57" style="fill:#eb6f43"/><rect x="294.73" y="238.59" width="9.71" height="80.57" style="fill:#eb6f43"/><rect x="278.13" y="238.59" width="9.71" height="80.57" style="fill:#eb6f43"/><rect x="261.54" y="238.59" width="9.71" height="80.57" style="fill:#eb8c43"/><rect x="244.94" y="238.59" width="9.71" height="80.57" style="fill:#fcc247"/><rect x="228.34" y="238.59" width="9.71" height="80.57" style="fill:#fcee47"/><rect x="211.75" y="238.59" width="9.71" height="80.57" style="fill:#fcee47"/><rect x="195.15" y="238.59" width="9.71" height="80.57" style="fill:#fcee47"/><rect x="178.55" y="238.59" width="9.71" height="80.57" style="fill:#fcee47"/><rect x="161.95" y="238.59" width="9.71" height="80.57" style="fill:#92ba31"/><rect x="145.35" y="238.59" width="9.71" height="80.57" style="fill:#368536"/><rect x="128.75" y="238.59" width="9.71" height="80.57" style="fill:#368536"/><rect x="112.16" y="238.59" width="9.71" height="80.57" style="fill:#368536"/><rect x="95.56" y="238.59" width="9.71" height="80.57" style="fill:#368536"/><rect x="78.96" y="238.59" width="9.71" height="80.57" style="fill:#248183"/><rect x="62.37" y="238.59" width="9.71" height="80.57" style="fill:#246eb2"/><rect x="45.77" y="238.59" width="9.71" height="80.57" style="fill:#246eb2"/><rect x="29.17" y="238.59" width="9.71" height="80.57" style="fill:#246eb2"/><rect x="12.57" y="238.59" width="9.71" height="80.57" style="fill:#246eb2"/><path d="M31.38,164.84c2.19-8.68,5.72-10.39,20.78-10.39,11.54,0,18,1.53,22.21,5.24,3.34,2.86,4.48,7.53,4.48,17.83,0,10.87-1.33,15.64-5.24,18.88-4,3.43-9.92,4.67-21.83,4.67-13.16,0-18.78-2.57-20.4-9.34v27.65H15V155.49h16.4Zm3,3.43c-2.1,1.62-2.86,4.1-2.86,9.53,0,9.73,1.72,10.87,16,10.87,7.82,0,10.2-.38,11.82-1.72,2-1.72,2.67-4.1,2.67-9.73,0-8.77-2.38-10.58-14.11-10.58C38.91,166.65,36,167,34.33,168.27Z" style="fill:#fcfcfc"/><path d="M85.66,136.42h16.4V200H85.66Z" style="fill:#fcfcfc"/><path d="M171.22,200h-16v-10.3c-2.19,8.68-7.06,11.35-20.5,11.35-10.3,0-16-1.81-19.83-6.29-3-3.43-4.1-7.72-4.1-15.64V155.49h16.4v23c0,8,2.57,9.82,13.73,9.82,10.77,0,13.92-2.86,13.92-12.68V155.49h16.4Z" style="fill:#fcfcfc"/><path d="M195.09,186.29c.1,3.91,2.67,4.67,15,4.67,9.73,0,12.87-1,12.87-4.1,0-2.19-1.43-3.34-4.77-3.53-1.62-.19-3.91-.19-8.49-.19h-8.2c-17.83,0-23.26-3.15-23.26-13.63,0-7.15,2.86-11.63,8.39-13.25,4.39-1.24,11.54-1.81,22-1.81,14,0,19.64.67,23.65,2.86,3.43,1.81,4.86,4.77,5.15,10.49H220.17c-.38-2.57-2.48-3.15-11.44-3.15-10.2,0-13.54,1-13.54,3.72s2,3.34,10.77,3.34H217.5c17.45,0,22.21,3.05,22.21,14,0,7.44-2.76,11.63-8.87,13.44-4.48,1.33-11.92,1.91-24.41,1.91-13.82,0-18.4-.57-22.6-2.76s-6-5.91-6.1-12Z" style="fill:#fcfcfc"/><path d="M308.3,136.42l-68.17,82.95H226.31l68.55-82.95Z" style="fill:#fcfcfc"/><path d="M354.28,199.39h-61.8V171.87l55.85-35.45h27.52v46.64h12.59v15.86H375.85v15.27H354.28Zm0-45.12-45.82,28.8h45.82Z" style="fill:#fcfcfc"/></svg>