<svg xmlns="http://www.w3.org/2000/svg" viewBox="0 0 400 400"><title>tlucs-c128_logo-400x400</title><rect width="400" height="400" rx="40" ry="40" style="fill:#9c9285"/><path d="M88.88,119h35.44v73.52H101.91V138.22H96.09l-21.7,18.31L62,142.1,88.88,119Z" style="fill:#fff"/><path d="M166.44,146.41H144.73a97.38,97.38,0,0,1,.7-13.52q1.29-8.19,7.43-11.2a35.59,35.59,0,0,1,11.47-2.77q7.38-.78,22.3-.78,22.46,0,28.76.51a23.11,23.11,0,0,1,9.91,2.66,12.4,12.4,0,0,1,5.52,6.73q1.54,4.36,1.54,13.36a56,56,0,0,1-.73,10.2,16.6,16.6,0,0,1-2.5,6.33,12.49,12.49,0,0,1-6.3,4.9,60.05,60.05,0,0,1-16.21,3q-23.06,1.35-29.79,2t-8.19,1.59a4.26,4.26,0,0,0-1.73,2,18.3,18.3,0,0,0-.54,4.33h67.16v16.91H145.81c-.15-2.9-.22-5.71-.22-8.4a140.07,140.07,0,0,1,.81-18.1q1.62-10.35,11.91-12.93a59.29,59.29,0,0,1,7.29-1.34q3.31-.38,19.31-1.62,15.51-1.19,18.42-1.51a24,24,0,0,0,4.85-1,4.28,4.28,0,0,0,2.58-1.86,9.58,9.58,0,0,0,.65-4.17,10.53,10.53,0,0,0-.73-4.58,4.16,4.16,0,0,0-2.61-2q-2.37-.81-16.86-.81-12.39,0-17.29.4t-6.09,1.48a4.38,4.38,0,0,0-1.16,2.53,71.55,71.55,0,0,0-.24,7.7Z" style="fill:#fff"/><path d="M259.94,155q-5.66-.38-8.35-2.1-5.12-3.39-5.12-14.22,0-9.37,3.45-13.68a13.27,13.27,0,0,1,5.71-4A40.37,40.37,0,0,1,265.86,119q9.1-.86,22.94-.86,26.29,0,33.34,2.9a12.78,12.78,0,0,1,7.22,6.63,27.91,27.91,0,0,1,1.78,10.93q0,8.73-2.9,12.25T317.67,155q6.46,1.13,8.78,2.69a10.78,10.78,0,0,1,4.28,5.6A31.68,31.68,0,0,1,332,173.34q0,9.1-3.07,13.19a13.35,13.35,0,0,1-6.25,4.39A44.78,44.78,0,0,1,311.32,193q-5.39.44-22.52.43-17.34,0-23.48-.46a37.5,37.5,0,0,1-10.39-2.07,13,13,0,0,1-7.19-5.92q-2.13-4-2.13-11.63,0-6.89,1.48-10.61a10.67,10.67,0,0,1,5-5.6A28.84,28.84,0,0,1,259.94,155Zm26.6-20.3q-12.54,0-15.64,1.07c-2.07.72-3.1,2.51-3.1,5.39s1,4.82,2.85,5.41,7.69.89,17.34.89q12.82,0,15.4-.14a12,12,0,0,0,4.26-.89q2.15-1,2.15-5.33a6.55,6.55,0,0,0-1-3.9,4.69,4.69,0,0,0-3.13-1.7Q301.73,134.72,286.54,134.67Zm2.26,28.55q-16.43,0-19,.86a3.64,3.64,0,0,0-2.26,1.91,10.45,10.45,0,0,0-.65,4.23,8.69,8.69,0,0,0,.76,4.25,4.53,4.53,0,0,0,3,1.78q2.48.64,16,.64,14.7,0,19.5-.64a5,5,0,0,0,3.56-1.75c.64-.92,1-2.51,1-4.77a8.51,8.51,0,0,0-.7-4,3.89,3.89,0,0,0-2.58-1.72q-1.78-.54-18.58-.81Z" style="fill:#fff"/><path d="M21.43,237.5V210.13h16.8q6.21,0,8.47,1.79T49,218.59q0,4.7-2.35,6.4t-8.83,1.71l-1.61,0H25.57V237.5Zm4.14-13.4h9.81q6.16,0,7.89-.94T45,218.83q0-4-1.17-5t-5.55-1.05l-1.59,0H25.57Z" style="fill:#fff"/><path d="M72,212.74v9.32H90.6v2.61H72V234.9H91.41v2.61H67.83V210.13H91.41v2.61Z" style="fill:#fff"/><path d="M112.14,237.5V210.13h17.47q5.92,0,8.33,1.74t2.42,6.06q0,3.79-1.32,5.28t-5,1.93v.06q5.84.32,5.83,5.29v7h-4.14v-6.3q0-4.79-5.57-4.79H116.28V237.5Zm4.14-13.7h12q4.73,0,6.45-1.07t1.72-4q0-3.71-1.28-4.83t-5.47-1.12H116.28Z" style="fill:#fff"/><path d="M187,217.55H182.9q0-3.31-1.48-4.2t-7-.89q-6.5,0-8.39.85t-1.88,3.8q0,3.31,1.48,4t8.79,1q8.58.28,10.9,1.63t2.32,6q0,5.05-2.67,6.54t-11.82,1.48q-7.93,0-10.55-1.49t-2.62-6l0-1.22h4.11v.68q0,3.67,1.5,4.56t7.72.89q7.12,0,8.76-.89t1.64-4.76q0-2.51-1.12-3.34t-4.66-1l-4.3-.16-4.08-.16q-9.33-.48-9.33-7.22,0-4.67,2.71-6.24t10.83-1.56q8.22,0,10.72,1.46t2.5,6.24Z" style="fill:#fff"/><path d="M221.49,209.85q10.4,0,13,2.26t2.61,11.33q0,9.76-2.5,12t-13.12,2.29q-10.56,0-13.1-2.26t-2.54-11.71v-1.92l.05-2.59q0-5.45,3.29-7.45T221.49,209.85Zm0,2.61q-8.71,0-10.19,1.44t-1.48,9.9q0,8.49,1.48,9.92t10.19,1.44q8.74,0,10.21-1.44t1.48-9.92V222l0-2.59q0-4.53-2-5.76T221.46,212.46Z" style="fill:#fff"/><path d="M288.59,210.13V237.5h-6.8l-15.38-18.63-2.5-3.07-1.24-1.52-1.24-1.52h-.11l0,1,0,1V237.5h-4.14V210.13H264l13.41,16.32,3.5,4.29,1.74,2.13L284.4,235h.11l0-1,0-1V210.13h4.14Z" style="fill:#fff"/><path d="M333.55,231.71H315l-2.82,5.8h-4.38l13.44-27.37H327l13.71,27.37h-4.33l-2.85-5.8Zm-1.21-2.32-8.14-16.73-8,16.73Z" style="fill:#fff"/><path d="M364,210.13v24.5h18.87v2.87h-23V210.13Z" style="fill:#fff"/><path d="M37.75,268.5h4.11v1q0,5.6-2.55,7t-12.85,1.39q-9.22,0-11.72-2.46t-2.5-11.56q0-7.12.57-9A6.11,6.11,0,0,1,16,251.68Q19.15,250,29.5,250q7,0,9.45,1.62t2.43,6.28l0,.74H37.3l0-.84q0-3.31-1.44-4.25t-6.49-.94q-8.87,0-10.83,1.1t-2,6.11q0,11.53,1.32,13.52t9,2q7.31,0,9.13-.86t1.81-4.33l-.06-1.63Z" style="fill:#fff"/><path d="M75.37,250q10.4,0,13,2.26T91,263.59q0,9.76-2.5,12t-13.11,2.29q-10.57,0-13.1-2.26T59.73,264V262l.05-2.59q0-5.45,3.29-7.45T75.37,250Zm0,2.61q-8.71,0-10.19,1.44T63.68,264q0,8.49,1.48,9.92t10.19,1.44q8.74,0,10.21-1.44T87,264v-1.78l0-2.59q0-4.53-2-5.76T75.34,252.6Z" style="fill:#fff"/><path d="M151.4,250.27v27.37h-4.14V254.11l0-.82,0-.82h-.11l-.32.64c-.16.32-.27.53-.32.62l-.7,1.28-12.5,22.64h-4.14L116.7,255.27,116,254l-.32-.64c-.09-.15-.2-.35-.32-.62h-.11l0,.74,0,.76v23.4h-4.14V250.27h7.18L128.09,268l1.56,2.87.78,1.42.75,1.42h.1l.75-1.42q.57-1,.75-1.42l1.58-2.85,9.73-17.73h7.28Z" style="fill:#fff"/><path d="M173.77,277.65V250.27h16.8q6.21,0,8.47,1.79t2.26,6.68q0,4.7-2.35,6.4t-8.83,1.71l-1.61,0H177.91v10.79h-4.14Zm4.14-13.4h9.81q6.15,0,7.89-.94t1.73-4.33q0-4-1.17-5t-5.55-1.05l-1.58,0H177.91v11.37Z" style="fill:#fff"/><path d="M246.6,250.27h4.14v19.17q0,5.21-2.81,6.85t-11.79,1.63q-8.41,0-11.44-1.57t-3-6V250.27h4.14v19.17q0,3.89,1.69,4.88t8.33,1q7.2,0,9-1t1.78-4.9V250.27Z" style="fill:#fff"/><path d="M285.91,253.14v24.5h-4.14v-24.5h-12v-2.87h28v2.87Z" style="fill:#fff"/><path d="M319.52,252.88v9.32h18.63v2.61H319.52V275H339v2.61H315.39V250.27H339v2.61Z" style="fill:#fff"/><path d="M359.69,277.65V250.27h17.47q5.91,0,8.33,1.74t2.42,6.06q0,3.79-1.32,5.28t-5,1.93v.06q5.83.32,5.83,5.29v7h-4.14v-6.3q0-4.79-5.56-4.79H363.83v11.09h-4.14Zm4.14-13.7h12q4.73,0,6.45-1.07t1.72-4q0-3.71-1.28-4.83t-5.47-1.12H363.83V264Z" style="fill:#fff"/></svg>