<svg xmlns="http://www.w3.org/2000/svg" viewBox="0 0 400 400"><title>tlucs-vic20_logo-400x400</title><rect width="400" height="400" rx="40" ry="40" style="fill:#42352d"/><path d="M199.17,101h-6.72V120.7h7.17V110.55c0-3,1.79-4,5.52-4s4.78,1.19,4.78,5.07v9.11h7.31V110.25c0-2.84,2.09-3.73,5.52-3.73,3.28,0,4.93,1,4.93,3.73V120.7h7.17V109.06c0-5.82-3.58-8.51-10.15-8.51-5.67,0-7.61,1.94-8.51,4.33-1.49-2.54-3.58-4.33-9.26-4.33-5.37,0-6.72,1.79-7.76,5.08V101Z" style="fill:#fff;fill-rule:evenodd"/><path d="M150.94,101h-6.72V120.7h7.17V110.55c0-3,1.49-4,5.52-4,3.73,0,4.78,1.34,4.78,5.07v9.11H169V110.25c0-2.84,2.24-3.73,5.67-3.73s4.78.9,4.78,3.73V120.7h7.17V109.06c0-5.82-3.58-8.51-10.15-8.51-5.67,0-7.76,2.09-8.51,4.33-1.49-2.54-3.58-4.33-9.26-4.33-5.37,0-6.87,1.79-7.76,5.08V101Z" style="fill:#fff;fill-rule:evenodd"/><path d="M48.25,98.12v-14a26.78,26.78,0,0,0-7.61-1c-14.93,0-27.92,12.39-27.92,27.77a27.87,27.87,0,0,0,28.07,27.77,24.13,24.13,0,0,0,7.46-1.19V123.05c-3.28,1.64-4.93,2.09-7.61,2.09A14.75,14.75,0,0,1,26,110.51,14.5,14.5,0,0,1,48.25,98.12Z" style="fill:#fff;fill-rule:evenodd"/><path d="M292.18,92.61v11.5c-1.64-2.24-3.14-3.43-9.11-3.43-9.55,0-11.35,2.54-11.35,10.3s2.54,10.15,11.79,10.15c5.82,0,7.61-1.49,9-4v3.58h7.17V92.61Zm-5.23,13.73c4,0,5.37.6,5.37,3.73,0,4.78-.3,5.22-6,5.22s-7.17-.15-7.17-4.18c0-4.63,1.79-4.78,7.76-4.78Z" style="fill:#fff;fill-rule:evenodd"/><path d="M139.59,110.54c0-8.06-2.24-9.7-13.73-9.7-12.39,0-13.88,1.94-13.88,10.3,0,8.51,2.09,10.3,13.88,10.3,12.54,0,13.73-2.09,13.73-10.9Zm-20.27.45c0-4,.9-4.48,6.12-4.48,5.82,0,6.87.15,6.87,4.48,0,4-.75,4.78-6.27,4.78-6,0-6.72-.6-6.72-4.78Z" style="fill:#fff;fill-rule:evenodd"/><path d="M331.75,110.54c0-8.06-2.24-9.7-13.73-9.7-12.39,0-13.88,1.94-13.88,10.3,0,8.51,2.09,10.3,13.88,10.3,12.54,0,13.73-2.09,13.73-10.9Zm-20.31.45c0-4,.9-4.48,6.12-4.48,5.82,0,6.87.15,6.87,4.48,0,4-.75,4.78-6.27,4.78-6,0-6.72-.6-6.72-4.78Z" style="fill:#fff;fill-rule:evenodd"/><path d="M267.24,110.54c0-8.06-2.39-9.7-13.88-9.7-12.39,0-13.88,2.09-13.88,10.45s2.09,10.15,13.88,10.15c12.54,0,13.88-2.09,13.88-10.9Zm-20.44.47c0-4,.9-4.48,6.12-4.48,5.82,0,6.87.15,6.87,4.48,0,4-.75,4.78-6.27,4.78-6,0-6.72-.6-6.72-4.78Z" style="fill:#fff;fill-rule:evenodd"/><path d="M100.49,109.35h7.17c-.6-6.72-2.54-8.36-12.54-8.36-11.35,0-13.88,1.79-13.88,10.15s2.39,10.3,13,10.3c11.2,0,13.44-1.49,13.44-8.51h-7.17c0,1.94-.75,2.84-6.27,2.84-4.78,0-5.82-1.19-5.82-5.07s1-3.73,6.72-3.73c4.18,0,4.93.45,5.38,2.39Z" style="fill:#fff;fill-rule:evenodd"/><path d="M375.94,116.81c-6.87,0-7.91-.6-7.91-4h18.81c-.3-9.55-.3-11.79-13-11.79-10.75,0-13.14,1.94-13.14,10.45,0,7.91,3.14,9.85,11.79,10,9.7,0,14.33-.45,14.33-6.87h-7c-.3,1.49-.9,2.24-3.88,2.24Zm-8.08-8.2c.3-2.09.9-2.84,5.67-2.84,5.22,0,6,.3,6.27,2.84Z" style="fill:#fff;fill-rule:evenodd"/><polygon points="72.86 98.88 48.98 98.88 48.98 109.78 62.12 109.78 72.86 98.88 72.86 98.88" style="fill:#fff;fill-rule:evenodd"/><polygon points="62.27 112.02 48.98 112.02 48.98 122.92 72.86 122.92 62.27 112.02 62.27 112.02" style="fill:#fff;fill-rule:evenodd"/><path d="M342.94,101h-6.87V120.7h7.17V110.4c0-2.69,1.64-4,4.63-4s3.73.9,3.88,3.43h6.72c0-6.72-.9-9.26-8.06-9.26-4.33,0-5.82.9-7.47,4.18V101Z" style="fill:#fff;fill-rule:evenodd"/><path d="M388.47,329.07v-10H12.57v10Z" style="fill:#4194c0"/><path d="M388.47,309.1v-10H12.57v10Z" style="fill:#5caa56"/><path d="M388.47,289.46v-10H12.57v10Z" style="fill:#ded41b"/><path d="M388.47,269.29v-9.88H12.57v9.88Z" style="fill:#e26233"/><path d="M388.47,249V239H12.57v10Z" style="fill:#da3b51"/><path d="M15,148.63H34.14L55,205.34h3.27l20.67-56.71H98L70.06,224.37H43.27Z" style="fill:#fcfcfc"/><rect x="105.16" y="148.63" width="18.32" height="75.75" style="fill:#fcfcfc"/><path d="M185.9,195.13h17.44q.17,5.55.17,7.16,0,8.77-2,13.71a12.62,12.62,0,0,1-8.51,7.55q-6.33,2-21.88,2a223.15,223.15,0,0,1-23.29-.83q-6.93-.83-10.46-3.22a13.11,13.11,0,0,1-4.69-5.83,32.57,32.57,0,0,1-2-10q-.37-5.16-.38-18.65,0-13.15.38-19a36.92,36.92,0,0,1,1.47-9,13.71,13.71,0,0,1,9.68-9.35q7.3-2.14,29.43-2.14a137.56,137.56,0,0,1,16.1.66,20.37,20.37,0,0,1,8,2.5,13.06,13.06,0,0,1,5.49,7.24q1.59,4.8,1.59,14.12,0,.49,0,3.77H185a43.27,43.27,0,0,0-.36-5.05,4.36,4.36,0,0,0-.94-2.11q-1-1.16-5.07-1.69a105.17,105.17,0,0,0-12.33-.53,88.91,88.91,0,0,0-11.32.47,7.5,7.5,0,0,0-4.45,1.86q-1.55,1.67-2.16,5.6a92,92,0,0,0-.61,12.54A90.82,90.82,0,0,0,148.3,199a9,9,0,0,0,2.1,5.08,8.14,8.14,0,0,0,4.67,2,85.73,85.73,0,0,0,11.34.5,125.35,125.35,0,0,0,13.35-.44q3.34-.44,4.51-1.94Q185.82,202.23,185.9,195.13Z" style="fill:#fcfcfc"/><path d="M256.22,176.82h-16.9a131.65,131.65,0,0,1,.55-13.93q1-8.43,5.78-11.54a22.29,22.29,0,0,1,8.93-2.86,136,136,0,0,1,17.35-.8q17.48,0,22.39.53A14.74,14.74,0,0,1,302,151a12.62,12.62,0,0,1,4.3,6.94q1.19,4.5,1.19,13.76a76.82,76.82,0,0,1-.56,10.52,20.71,20.71,0,0,1-2,6.52,10.7,10.7,0,0,1-4.9,5,36.79,36.79,0,0,1-12.62,3.05q-17.94,1.39-23.18,2t-6.37,1.64a4.25,4.25,0,0,0-1.34,2,25,25,0,0,0-.42,4.47h52.27v17.42H240.16q-.16-4.49-.16-8.66,0-13,.63-18.64,1.26-10.66,9.26-13.32a36.52,36.52,0,0,1,5.68-1.39q2.58-.39,15-1.67,12.07-1.22,14.34-1.55a14.76,14.76,0,0,0,3.77-1,3.6,3.6,0,0,0,2-1.91,12.82,12.82,0,0,0,.5-4.3,14.06,14.06,0,0,0-.57-4.72,3.56,3.56,0,0,0-2-2.05q-1.85-.83-13.12-.83-9.64,0-13.46.41t-4.74,1.53a5.28,5.28,0,0,0-.9,2.61Q256.22,170.55,256.22,176.82Z" style="fill:#fcfcfc"/><path d="M352.36,147.74q16.35,0,23.1,1.33a13.57,13.57,0,0,1,10.65,8.77,26.53,26.53,0,0,1,1.85,8.16q.33,4.5.33,20.48,0,12.54-.1,16a62.47,62.47,0,0,1-.57,6.79q-1.13,8.49-6.54,12.27a15.61,15.61,0,0,1-5.26,2.3,47.72,47.72,0,0,1-8.61,1q-6.71.39-14.8.39-16.39,0-23.14-1.33a13.72,13.72,0,0,1-10.65-8.77,27.09,27.09,0,0,1-1.84-8.24q-.34-4.52-.34-21.45,0-11.54.1-15a62.86,62.86,0,0,1,.57-6.74q1.13-8.54,6.54-12.26a14.62,14.62,0,0,1,5.26-2.33,50.66,50.66,0,0,1,8.62-1Q344.1,147.74,352.36,147.74Zm-1,19.7q-11.91,0-14.5,2.06-1.68,1.33-2.31,4.94a75.82,75.82,0,0,0-.63,11.71q0,9.38.74,13t2.87,4.86a9,9,0,0,0,3.46,1.14q1.95.25,10.29.47,10.69-.28,12.33-.5,4.69-.66,6-4t1.3-14.62a72.62,72.62,0,0,0-.73-12.57q-.74-3.58-2.87-4.86a8.89,8.89,0,0,0-3.62-1.17Q361.58,167.66,351.31,167.44Z" style="fill:#fcfcfc"/></svg>