<svg xmlns="http://www.w3.org/2000/svg" viewBox="0 0 400 400"><title>tlucs-c64_logo-400x400</title><rect width="400" height="400" rx="40" ry="40" style="fill:#6f685f"/><path d="M259.91,168.14q0,25-43.93,25H201q-24.76,0-34.34-8.54T157.06,155V136.15q0-20.9,9.59-29.44T201,98.16h15q20.4,0,30.68,5.48t10.29,16.06v6.76H221.72V124c0-2.21-.63-3.66-1.91-4.34s-3.84-1-7.67-1h-8.37c-4.76,0-7.81.39-9.14,1.15s-2,2.59-2,5.48v13q7.66-4.2,19-4.2H224q18.66,0,27.29,6.3t8.63,19.44v8.29h0ZM118.5,151.73H90V175.1h51.2L118.5,151.73Zm22.71-28.16H90v23.36h28.16l23-23.36ZM88.41,122V91.9a57.3,57.3,0,0,0-16.32-2.24c-31.68,0-59.52,26.57-59.52,59.52,0,33.92,28.16,59.21,59.84,59.21,5.76,0,9-.64,16-2.57V175.1c-7,3.52-10.56,4.48-16.32,4.48-17.6,0-31.05-14.72-31.05-31,0-17,13.12-31.36,30.73-31.36A31.35,31.35,0,0,1,88.41,122h0Zm299,52.66h-15V192H337.23V174.64H273.6l.18-25.23,50.38-50.09h48.28v54.81h15v20.52h0Zm-50.2-20.52V123.41l-30.51,30.71ZM224.7,166.74V160q0-3.58-2.36-4.53c-1.56-.63-5-1-10.2-1h-6.79q-7.86,0-10.29.9c-1.63.59-2.44,2.12-2.44,4.59v6.75c0,2.56.81,4.15,2.44,4.78s5.05,1,10.29,1h6.79q8,0,10.29-1c1.51-.63,2.27-2.22,2.27-4.78h0Z" style="fill:#fff"/><polygon points="12.57 299.07 12.57 299.07 387.43 299.07 387.43 309.07 12.57 309.07 12.57 299.07" style="fill:#009ee0"/><polygon points="12.57 279.06 12.57 279.06 387.43 279.06 387.43 289.06 12.57 289.06 12.57 279.06" style="fill:#57ab27"/><polygon points="12.57 259.04 12.57 259.04 387.43 259.04 387.43 269.05 12.57 269.05 12.57 259.04" style="fill:#fc0"/><polygon points="12.57 239.03 12.57 239.03 387.43 239.03 387.43 249.04 12.57 249.04 12.57 239.03" style="fill:#e95e38"/><polygon points="12.57 219.02 12.57 219.02 387.43 219.02 387.43 229.03 12.57 229.03 12.57 219.02" style="fill:#e2001a"/></svg>